<svg xmlns="http://www.w3.org/2000/svg" width="229.82" height="232.36" viewBox="0 0 229.82 232.36"><defs><style>.a{fill:#0050ff;}</style></defs><title>Asset 2</title><path class="a" d="M139.41,90.41a13.43,13.43,0,1,1-19,0A13.47,13.47,0,0,1,139.41,90.41ZM112.77,0A117,117,0,0,0,5.5,70.28c-.6,1.49-1.13,3-1.61,4.53-5.25,16.7-5,35.71-.4,52.53,3.19,11.68,9.07,21.82,20.53,27,7.76,3.55,16.69,3.64,25,1.61,10.86-2.67,25.71-19.86,25.71-19.86h0a43,43,0,0,1,2.85-15.2L46.2,107.65,60.45,93.4H91.79a148.06,148.06,0,0,1,16.14-19c27.54-27.55,71.23-23.75,71.23-23.75s3.8,43.69-23.75,71.23a149,149,0,0,1-19,16.15v31.34l-14.24,14.24-13.3-31.34a47.24,47.24,0,0,1-15.2,2.85h0s-14.2,13.55-16.08,16A41.47,41.47,0,0,0,70,188.59a36.35,36.35,0,0,0-.06,13.83c4.5,22.48,31.26,29.06,51.06,29.87,36.56,1.49,72.09-23.06,91-53.19A117,117,0,0,0,112.77,0Z"/></svg>